<svg width="11" height="10" viewBox="0 0 11 10" fill="none" xmlns="http://www.w3.org/2000/svg">
<mask id="path-1-outside-1_4_11" maskUnits="userSpaceOnUse" x="0" y="0" width="11" height="10" fill="black">
<rect fill="white" width="11" height="10"/>
<path d="M9.30859 8.32617H10.416V8.83008C10.2754 8.9043 10.043 8.96875 9.71875 9.02344C9.39844 9.07812 9.08203 9.10547 8.76953 9.10547C8.53125 9.10547 8.33203 9.07031 8.17188 9C8.01172 8.93359 7.93164 8.78125 7.93164 8.54297V5.07422H3.88281V7.1543C3.88281 7.65039 3.90625 8.03906 3.95312 8.32031C4.00391 8.59766 4.04102 8.79297 4.06445 8.90625C3.95117 8.96875 3.81445 9.01758 3.6543 9.05273C3.49414 9.08789 3.34766 9.10547 3.21484 9.10547C3.01172 9.10547 2.8418 9.06445 2.70508 8.98242C2.57227 8.89648 2.50586 8.74219 2.50586 8.51953V1.3418H1.375V0.878906C1.49609 0.816406 1.7207 0.755859 2.04883 0.697266C2.37695 0.638672 2.73242 0.609375 3.11523 0.609375H3.37891C3.53125 0.609375 3.65234 0.617187 3.74219 0.632812C3.83594 0.648438 3.88281 0.742188 3.88281 0.914062V4.24805H7.93164V2.50781C7.93164 2.00781 7.90625 1.62695 7.85547 1.36523C7.80859 1.10352 7.77344 0.916016 7.75 0.802734C7.86328 0.736328 8 0.6875 8.16016 0.65625C8.32031 0.625 8.4668 0.609375 8.59961 0.609375C8.80664 0.609375 8.97656 0.650391 9.10938 0.732422C9.24219 0.814453 9.30859 0.966797 9.30859 1.18945V8.32617Z"/>
</mask>
<path d="M9.30859 8.32617H10.416V8.83008C10.2754 8.9043 10.043 8.96875 9.71875 9.02344C9.39844 9.07812 9.08203 9.10547 8.76953 9.10547C8.53125 9.10547 8.33203 9.07031 8.17188 9C8.01172 8.93359 7.93164 8.78125 7.93164 8.54297V5.07422H3.88281V7.1543C3.88281 7.65039 3.90625 8.03906 3.95312 8.32031C4.00391 8.59766 4.04102 8.79297 4.06445 8.90625C3.95117 8.96875 3.81445 9.01758 3.6543 9.05273C3.49414 9.08789 3.34766 9.10547 3.21484 9.10547C3.01172 9.10547 2.8418 9.06445 2.70508 8.98242C2.57227 8.89648 2.50586 8.74219 2.50586 8.51953V1.3418H1.375V0.878906C1.49609 0.816406 1.7207 0.755859 2.04883 0.697266C2.37695 0.638672 2.73242 0.609375 3.11523 0.609375H3.37891C3.53125 0.609375 3.65234 0.617187 3.74219 0.632812C3.83594 0.648438 3.88281 0.742188 3.88281 0.914062V4.24805H7.93164V2.50781C7.93164 2.00781 7.90625 1.62695 7.85547 1.36523C7.80859 1.10352 7.77344 0.916016 7.75 0.802734C7.86328 0.736328 8 0.6875 8.16016 0.65625C8.32031 0.625 8.4668 0.609375 8.59961 0.609375C8.80664 0.609375 8.97656 0.650391 9.10938 0.732422C9.24219 0.814453 9.30859 0.966797 9.30859 1.18945V8.32617Z" fill="url(#paint0_linear_4_11)"/>
<path d="M9.30859 8.32617H8.80859V8.82617H9.30859V8.32617ZM10.416 8.32617H10.916V7.82617H10.416V8.32617ZM10.416 8.83008L10.6494 9.27227L10.916 9.13155V8.83008H10.416ZM9.71875 9.02344L9.63559 8.5304L9.6346 8.53057L9.71875 9.02344ZM8.17188 9L8.37291 8.54208L8.36338 8.53813L8.17188 9ZM7.93164 5.07422H8.43164V4.57422H7.93164V5.07422ZM3.88281 5.07422V4.57422H3.38281V5.07422H3.88281ZM3.95312 8.32031L3.45987 8.40252L3.4613 8.41036L3.95312 8.32031ZM4.06445 8.90625L4.30599 9.34404L4.62877 9.16595L4.55408 8.80495L4.06445 8.90625ZM2.70508 8.98242L2.43345 9.40221L2.44057 9.40681L2.44783 9.41117L2.70508 8.98242ZM2.50586 1.3418H3.00586V0.841797H2.50586V1.3418ZM1.375 1.3418H0.875V1.8418H1.375V1.3418ZM1.375 0.878906L1.14568 0.434596L0.875 0.574301V0.878906H1.375ZM3.74219 0.632812L3.65651 1.12543L3.65999 1.12601L3.74219 0.632812ZM3.88281 4.24805H3.38281V4.74805H3.88281V4.24805ZM7.93164 4.24805V4.74805H8.43164V4.24805H7.93164ZM7.85547 1.36523L7.36325 1.45339L7.36462 1.46047L7.85547 1.36523ZM7.75 0.802734L7.49714 0.371385L7.1877 0.552783L7.26037 0.904037L7.75 0.802734ZM9.30859 8.32617V8.82617H10.416V8.32617V7.82617H9.30859V8.32617ZM10.416 8.32617H9.91602V8.83008H10.416H10.916V8.32617H10.416ZM10.416 8.83008L10.1826 8.38789C10.1166 8.42274 9.95098 8.4772 9.63559 8.5304L9.71875 9.02344L9.80191 9.51647C10.135 9.4603 10.4342 9.38585 10.6494 9.27227L10.416 8.83008ZM9.71875 9.02344L9.6346 8.53057C9.34099 8.5807 9.05273 8.60547 8.76953 8.60547V9.10547V9.60547C9.11133 9.60547 9.45589 9.57555 9.8029 9.51631L9.71875 9.02344ZM8.76953 9.10547V8.60547C8.57685 8.60547 8.45114 8.57654 8.37287 8.54218L8.17188 9L7.97088 9.45782C8.21292 9.56408 8.48565 9.60547 8.76953 9.60547V9.10547ZM8.17188 9L8.36338 8.53813C8.37307 8.54215 8.38795 8.55031 8.40341 8.56438C8.4189 8.57849 8.42885 8.59297 8.43428 8.6033C8.43929 8.61282 8.43849 8.61502 8.43647 8.60515C8.43439 8.59502 8.43164 8.57512 8.43164 8.54297H7.93164H7.43164C7.43164 8.71366 7.45968 8.89844 7.54912 9.06858C7.64394 9.24897 7.79326 9.38429 7.98037 9.46187L8.17188 9ZM7.93164 8.54297H8.43164V5.07422H7.93164H7.43164V8.54297H7.93164ZM7.93164 5.07422V4.57422H3.88281V5.07422V5.57422H7.93164V5.07422ZM3.88281 5.07422H3.38281V7.1543H3.88281H4.38281V5.07422H3.88281ZM3.88281 7.1543H3.38281C3.38281 7.66097 3.4064 8.08134 3.45993 8.40251L3.95312 8.32031L4.44632 8.23811C4.4061 7.99678 4.38281 7.63981 4.38281 7.1543H3.88281ZM3.95312 8.32031L3.4613 8.41036C3.51207 8.68767 3.5501 8.88805 3.57482 9.00755L4.06445 8.90625L4.55408 8.80495C4.53193 8.69788 4.49574 8.50765 4.44495 8.23026L3.95312 8.32031ZM4.06445 8.90625L3.82291 8.46846C3.76124 8.50249 3.67219 8.5369 3.54709 8.56436L3.6543 9.05273L3.7615 9.54111C3.95672 9.49825 4.14111 9.43501 4.30599 9.34404L4.06445 8.90625ZM3.6543 9.05273L3.54709 8.56436C3.4143 8.59351 3.30437 8.60547 3.21484 8.60547V9.10547V9.60547C3.39094 9.60547 3.57398 9.58227 3.7615 9.54111L3.6543 9.05273ZM3.21484 9.10547V8.60547C3.07788 8.60547 3.00274 8.57793 2.96233 8.55368L2.70508 8.98242L2.44783 9.41117C2.68085 9.55098 2.94556 9.60547 3.21484 9.60547V9.10547ZM2.70508 8.98242L2.9767 8.56264C2.98555 8.56836 2.99483 8.57637 3.0028 8.58598C3.0106 8.5954 3.0141 8.60265 3.01494 8.60459C3.01559 8.6061 3.01322 8.60113 3.01073 8.58696C3.00821 8.57267 3.00586 8.5507 3.00586 8.51953H2.50586H2.00586C2.00586 8.83632 2.10475 9.18952 2.43345 9.40221L2.70508 8.98242ZM2.50586 8.51953H3.00586V1.3418H2.50586H2.00586V8.51953H2.50586ZM2.50586 1.3418V0.841797H1.375V1.3418V1.8418H2.50586V1.3418ZM1.375 1.3418H1.875V0.878906H1.375H0.875V1.3418H1.375ZM1.375 0.878906L1.60432 1.32322C1.65099 1.29913 1.8071 1.24834 2.13672 1.18948L2.04883 0.697266L1.96093 0.205052C1.6343 0.263378 1.3412 0.333683 1.14568 0.434596L1.375 0.878906ZM2.04883 0.697266L2.13672 1.18948C2.43194 1.13676 2.75765 1.10938 3.11523 1.10938V0.609375V0.109375C2.70719 0.109375 2.32196 0.140582 1.96093 0.205052L2.04883 0.697266ZM3.11523 0.609375V1.10938H3.37891V0.609375V0.109375H3.11523V0.609375ZM3.37891 0.609375V1.10938C3.51885 1.10938 3.60746 1.11689 3.65652 1.12542L3.74219 0.632812L3.82786 0.140207C3.69723 0.117489 3.54365 0.109375 3.37891 0.109375V0.609375ZM3.74219 0.632812L3.65999 1.12601C3.60714 1.1172 3.54912 1.09459 3.49674 1.05386C3.44585 1.01428 3.41626 0.970078 3.40044 0.938451C3.37379 0.885139 3.38281 0.861883 3.38281 0.914062H3.88281H4.38281C4.38281 0.794367 4.3684 0.638299 4.29487 0.491237C4.20842 0.318345 4.04697 0.176713 3.82439 0.139616L3.74219 0.632812ZM3.88281 0.914062H3.38281V4.24805H3.88281H4.38281V0.914062H3.88281ZM3.88281 4.24805V4.74805H7.93164V4.24805V3.74805H3.88281V4.24805ZM7.93164 4.24805H8.43164V2.50781H7.93164H7.43164V4.24805H7.93164ZM7.93164 2.50781H8.43164C8.43164 1.99842 8.40635 1.5794 8.34631 1.27L7.85547 1.36523L7.36462 1.46047C7.40615 1.67451 7.43164 2.01721 7.43164 2.50781H7.93164ZM7.85547 1.36523L8.34764 1.27708C8.30072 1.01511 8.26454 0.821851 8.23963 0.701432L7.75 0.802734L7.26037 0.904037C7.28233 1.01018 7.31647 1.19192 7.3633 1.45338L7.85547 1.36523ZM7.75 0.802734L8.00286 1.23408C8.05732 1.20216 8.1382 1.16996 8.25591 1.147L8.16016 0.65625L8.0644 0.165505C7.8618 0.205037 7.66924 0.2705 7.49714 0.371385L7.75 0.802734ZM8.16016 0.65625L8.25591 1.147C8.39137 1.12056 8.50524 1.10938 8.59961 1.10938V0.609375V0.109375C8.42836 0.109375 8.24925 0.129436 8.0644 0.165505L8.16016 0.65625ZM8.59961 0.609375V1.10938C8.74334 1.10938 8.81459 1.13803 8.84663 1.15782L9.10938 0.732422L9.37212 0.307023C9.13853 0.162747 8.86994 0.109375 8.59961 0.109375V0.609375ZM9.10938 0.732422L8.84663 1.15782C8.83603 1.15128 8.82503 1.14209 8.81556 1.13095C8.80629 1.12004 8.80185 1.11122 8.80044 1.108C8.79924 1.10523 8.80139 1.1092 8.8038 1.12283C8.80624 1.13658 8.80859 1.15825 8.80859 1.18945H9.30859H9.80859C9.80859 0.874433 9.7102 0.515836 9.37212 0.307023L9.10938 0.732422ZM9.30859 1.18945H8.80859V8.32617H9.30859H9.80859V1.18945H9.30859Z" fill="#C2FFBA" mask="url(#path-1-outside-1_4_11)"/>
<defs>
<linearGradient id="paint0_linear_4_11" x1="1" y1="4.5" x2="11" y2="4.5" gradientUnits="userSpaceOnUse">
<stop stop-color="#22C55F"/>
<stop offset="1" stop-color="#14B8A5"/>
</linearGradient>
</defs>
</svg>
