<svg width="302" height="284" viewBox="0 0 302 284" fill="none" xmlns="http://www.w3.org/2000/svg">
<path d="M264.953 257.539H301.867V274.336C297.18 276.81 289.432 278.958 278.625 280.781C267.948 282.604 257.401 283.516 246.984 283.516C239.042 283.516 232.401 282.344 227.062 280C221.724 277.786 219.055 272.708 219.055 264.766V149.141H84.0938V218.477C84.0938 235.013 84.875 247.969 86.4375 257.344C88.1302 266.589 89.3672 273.099 90.1484 276.875C86.3724 278.958 81.8151 280.586 76.4766 281.758C71.138 282.93 66.2552 283.516 61.8281 283.516C55.0573 283.516 49.3932 282.148 44.8359 279.414C40.4089 276.549 38.1953 271.406 38.1953 263.984V24.7266H0.5V9.29688C4.53646 7.21354 12.0234 5.19531 22.9609 3.24219C33.8984 1.28906 45.7474 0.3125 58.5078 0.3125H67.2969C72.375 0.3125 76.4115 0.572917 79.4062 1.09375C82.5312 1.61458 84.0938 4.73958 84.0938 10.4688V121.602H219.055V63.5938C219.055 46.9271 218.208 34.2318 216.516 25.5078C214.953 16.7839 213.781 10.5339 213 6.75781C216.776 4.54427 221.333 2.91667 226.672 1.875C232.01 0.833333 236.893 0.3125 241.32 0.3125C248.221 0.3125 253.885 1.67969 258.312 4.41406C262.74 7.14844 264.953 12.2266 264.953 19.6484V257.539Z" fill="#D0F6C2"/>
</svg>
