<svg width="349" height="487" viewBox="0 0 349 487" fill="none" xmlns="http://www.w3.org/2000/svg">
<path d="M297.953 365.539H334.867V382.336C330.18 384.81 322.432 386.958 311.625 388.781C300.948 390.604 290.401 391.516 279.984 391.516C272.042 391.516 265.401 390.344 260.062 388C254.724 385.786 252.055 380.708 252.055 372.766V257.141H117.094V326.477C117.094 343.013 117.875 355.969 119.438 365.344C121.13 374.589 122.367 381.099 123.148 384.875C119.372 386.958 114.815 388.586 109.477 389.758C104.138 390.93 99.2552 391.516 94.8281 391.516C88.0573 391.516 82.3932 390.148 77.8359 387.414C73.4089 384.549 71.1953 379.406 71.1953 371.984V132.727H33.5V117.297C37.5365 115.214 45.0234 113.195 55.9609 111.242C66.8984 109.289 78.7474 108.312 91.5078 108.312H100.297C105.375 108.312 109.411 108.573 112.406 109.094C115.531 109.615 117.094 112.74 117.094 118.469V229.602H252.055V171.594C252.055 154.927 251.208 142.232 249.516 133.508C247.953 124.784 246.781 118.534 246 114.758C249.776 112.544 254.333 110.917 259.672 109.875C265.01 108.833 269.893 108.312 274.32 108.312C281.221 108.312 286.885 109.68 291.312 112.414C295.74 115.148 297.953 120.227 297.953 127.648V365.539Z" fill="#323030"/>
<path d="M276.953 365.539H313.867V382.336C309.18 384.81 301.432 386.958 290.625 388.781C279.948 390.604 269.401 391.516 258.984 391.516C251.042 391.516 244.401 390.344 239.062 388C233.724 385.786 231.055 380.708 231.055 372.766V257.141H96.0938V326.477C96.0938 343.013 96.875 355.969 98.4375 365.344C100.13 374.589 101.367 381.099 102.148 384.875C98.3724 386.958 93.8151 388.586 88.4766 389.758C83.138 390.93 78.2552 391.516 73.8281 391.516C67.0573 391.516 61.3932 390.148 56.8359 387.414C52.4089 384.549 50.1953 379.406 50.1953 371.984V132.727H12.5V117.297C16.5365 115.214 24.0234 113.195 34.9609 111.242C45.8984 109.289 57.7474 108.312 70.5078 108.312H79.2969C84.375 108.312 88.4115 108.573 91.4062 109.094C94.5312 109.615 96.0938 112.74 96.0938 118.469V229.602H231.055V171.594C231.055 154.927 230.208 142.232 228.516 133.508C226.953 124.784 225.781 118.534 225 114.758C228.776 112.544 233.333 110.917 238.672 109.875C244.01 108.833 248.893 108.312 253.32 108.312C260.221 108.312 265.885 109.68 270.312 112.414C274.74 115.148 276.953 120.227 276.953 127.648V365.539Z" fill="url(#paint0_linear_41_2)"/>
<defs>
<linearGradient id="paint0_linear_41_2" x1="164" y1="184" x2="283.971" y2="231.865" gradientUnits="userSpaceOnUse">
<stop stop-color="white"/>
<stop offset="1" stop-color="#A2A2A2"/>
</linearGradient>
</defs>
</svg>
