<svg width="2141" height="487" viewBox="0 0 2141 487" fill="none" xmlns="http://www.w3.org/2000/svg">
<path d="M297.953 365.539H334.867V382.336C330.18 384.81 322.432 386.958 311.625 388.781C300.948 390.604 290.401 391.516 279.984 391.516C272.042 391.516 265.401 390.344 260.062 388C254.724 385.786 252.055 380.708 252.055 372.766V257.141H117.094V326.477C117.094 343.013 117.875 355.969 119.438 365.344C121.13 374.589 122.367 381.099 123.148 384.875C119.372 386.958 114.815 388.586 109.477 389.758C104.138 390.93 99.2552 391.516 94.8281 391.516C88.0573 391.516 82.3932 390.148 77.8359 387.414C73.4089 384.549 71.1953 379.406 71.1953 371.984V132.727H33.5V117.297C37.5365 115.214 45.0234 113.195 55.9609 111.242C66.8984 109.289 78.7474 108.312 91.5078 108.312H100.297C105.375 108.312 109.411 108.573 112.406 109.094C115.531 109.615 117.094 112.74 117.094 118.469V229.602H252.055V171.594C252.055 154.927 251.208 142.232 249.516 133.508C247.953 124.784 246.781 118.534 246 114.758C249.776 112.544 254.333 110.917 259.672 109.875C265.01 108.833 269.893 108.312 274.32 108.312C281.221 108.312 286.885 109.68 291.312 112.414C295.74 115.148 297.953 120.227 297.953 127.648V365.539ZM499.906 370.812C499.906 370.682 498.018 371.789 494.242 374.133C490.596 376.477 485.583 379.211 479.203 382.336C472.953 385.461 465.987 388.195 458.305 390.539C450.622 392.883 442.745 394.055 434.672 394.055C423.344 394.055 412.862 392.036 403.227 388C393.591 383.833 385.844 377.453 379.984 368.859C374.125 360.135 371.195 349.068 371.195 335.656C371.195 320.682 375.492 308.703 384.086 299.719C392.81 290.734 404.789 284.289 420.023 280.383C435.258 276.346 452.706 274.328 472.367 274.328H499.906V259.68C499.906 249.523 499.255 240.083 497.953 231.359C496.651 222.635 493.786 215.669 489.359 210.461C485.062 205.122 478.292 202.453 469.047 202.453C460.323 202.453 451.469 204.471 442.484 208.508C433.63 212.544 425.167 217.427 417.094 223.156C409.021 228.885 401.729 234.354 395.219 239.562L379.203 218.078C377.25 215.734 376.273 213.326 376.273 210.852C376.273 206.555 378.943 202.648 384.281 199.133C389.62 195.617 396.456 192.557 404.789 189.953C413.122 187.349 421.911 185.396 431.156 184.094C440.531 182.661 449.19 181.945 457.133 181.945C473.148 181.945 487.797 184.549 501.078 189.758C514.49 194.836 525.167 203.104 533.109 214.562C541.182 225.891 545.219 240.93 545.219 259.68V368.469H579.203V383.117C574.776 385.591 567.484 387.609 557.328 389.172C547.172 390.734 537.341 391.516 527.836 391.516C521.456 391.516 515.271 390.409 509.281 388.195C503.422 386.112 500.297 380.969 499.906 372.766V370.812ZM448.344 365.148C452.901 365.148 458.109 364.562 463.969 363.391C469.828 362.219 475.492 360.852 480.961 359.289C486.43 357.596 490.922 356.164 494.438 354.992C498.083 353.82 499.906 353.234 499.906 353.234V298.352H467.094C460.583 298.352 453.292 299.263 445.219 301.086C437.276 302.779 430.375 306.164 424.516 311.242C418.786 316.19 415.922 323.612 415.922 333.508C415.922 342.753 418.721 350.37 424.32 356.359C429.919 362.219 437.927 365.148 448.344 365.148ZM767.484 229.602C758.891 224.654 748.734 219.38 737.016 213.781C725.297 208.052 713.708 205.188 702.25 205.188C690.531 205.188 681.026 208.898 673.734 216.32C666.573 223.742 661.299 232.987 657.914 244.055C654.659 254.992 653.031 265.93 653.031 276.867C653.031 293.924 656.026 309.419 662.016 323.352C668.135 337.284 677.51 348.352 690.141 356.555C702.771 364.758 718.786 368.859 738.188 368.859C753.943 368.859 771 366.06 789.359 360.461L795.805 373.547C785.128 380.708 772.888 385.917 759.086 389.172C745.414 392.427 732.068 394.055 719.047 394.055C704.854 394.055 691.117 391.841 677.836 387.414C664.555 382.857 652.641 376.216 642.094 367.492C631.677 358.768 623.344 348.091 617.094 335.461C610.974 322.701 607.914 308.052 607.914 291.516C607.914 268.729 613.122 249.198 623.539 232.922C633.956 216.516 648.148 203.951 666.117 195.227C684.086 186.372 704.398 181.945 727.055 181.945C729.008 181.945 732.914 182.206 738.773 182.727C744.633 183.117 750.883 183.964 757.523 185.266C764.294 186.438 770.089 188.195 774.906 190.539C779.854 192.883 782.328 195.878 782.328 199.523C782.328 201.477 782.003 202.844 781.352 203.625L767.484 229.602ZM814.359 111.242V96.3984C818.005 94.7057 823.474 93.2734 830.766 92.1016C838.188 90.9297 846.065 90.0182 854.398 89.3672C862.862 88.7161 870.479 88.3906 877.25 88.3906C882.589 88.3906 886.69 88.8464 889.555 89.7578C892.549 90.5391 894.047 93.5339 894.047 98.7422V329.211C894.047 345.227 894.763 357.661 896.195 366.516C897.628 375.37 898.799 381.62 899.711 385.266C896.065 387.219 891.508 388.716 886.039 389.758C880.57 390.93 875.753 391.516 871.586 391.516C865.076 391.516 859.672 390.214 855.375 387.609C851.078 384.875 848.93 379.927 848.93 372.766V111.242H814.359ZM1018.46 196.398C1018.46 202.648 1015.79 209.419 1010.45 216.711C1005.11 224.003 998.279 231.359 989.945 238.781C981.742 246.203 973.214 253.299 964.359 260.07C955.635 266.841 947.823 272.831 940.922 278.039L1002.84 357.141L1031.74 338.391L1039.55 350.305C1036.56 356.164 1031.74 362.284 1025.1 368.664C1018.59 375.044 1011.56 380.448 1004.01 384.875C996.456 389.302 989.555 391.516 983.305 391.516C976.534 391.516 970.935 388.456 966.508 382.336L902.445 300.305C902.445 300.305 901.99 299.589 901.078 298.156C900.167 296.724 899.711 294.966 899.711 292.883C899.711 289.497 901.143 286.568 904.008 284.094C908.174 280.318 913.773 275.5 920.805 269.641C927.966 263.781 935.193 257.336 942.484 250.305C949.776 243.143 955.896 235.917 960.844 228.625C965.922 221.203 968.461 214.172 968.461 207.531C968.461 204.016 967.94 200.956 966.898 198.352C975.883 193.924 982.523 190.539 986.82 188.195C991.117 185.852 994.438 184.224 996.781 183.312C999.255 182.401 1002.05 181.945 1005.18 181.945C1009.61 181.945 1012.93 183.378 1015.14 186.242C1017.35 188.977 1018.46 192.362 1018.46 196.398ZM1224.32 374.328C1215.21 379.927 1205.83 384.615 1196.2 388.391C1186.69 392.167 1174.65 394.055 1160.06 394.055C1141.05 394.055 1126.01 388.391 1114.95 377.062C1103.88 365.734 1098.34 350.044 1098.34 329.992V212.023H1057.91V203.234C1057.91 197.375 1059.15 193.404 1061.62 191.32C1064.23 189.107 1068.33 188 1073.93 188H1098.34V141.516C1098.34 134.354 1100.49 129.536 1104.79 127.062C1109.09 124.458 1114.55 123.156 1121.2 123.156C1125.36 123.156 1130.18 123.677 1135.65 124.719C1141.12 125.63 1145.61 127.128 1149.12 129.211C1148.34 132.857 1147.24 139.172 1145.8 148.156C1144.37 157.141 1143.66 170.422 1143.66 188H1211.62V196.398C1211.62 202.128 1210.32 206.164 1207.72 208.508C1205.24 210.852 1201.21 212.023 1195.61 212.023H1143.66V326.477C1143.66 356.034 1154.46 370.812 1176.08 370.812C1182.59 370.812 1189.1 369.901 1195.61 368.078C1202.12 366.255 1207.52 364.497 1211.82 362.805C1216.12 361.112 1218.2 360.461 1218.07 360.852L1224.32 374.328ZM1469.44 288.391C1469.44 309.615 1464.62 328.169 1454.98 344.055C1445.48 359.81 1432.65 372.115 1416.51 380.969C1400.36 389.693 1382.33 394.055 1362.41 394.055C1342.35 394.055 1324.19 389.628 1307.91 380.773C1291.64 371.919 1278.68 359.615 1269.05 343.859C1259.54 327.974 1254.79 309.484 1254.79 288.391C1254.79 267.036 1259.54 248.417 1269.05 232.531C1278.68 216.516 1291.64 204.081 1307.91 195.227C1324.19 186.372 1342.35 181.945 1362.41 181.945C1382.46 181.945 1400.56 186.372 1416.7 195.227C1432.85 204.081 1445.67 216.516 1455.18 232.531C1464.68 248.417 1469.44 267.036 1469.44 288.391ZM1303.03 288C1303.03 302.714 1304.66 316.581 1307.91 329.602C1311.17 342.622 1317.09 353.169 1325.69 361.242C1334.28 369.185 1346.52 373.156 1362.41 373.156C1378.29 373.156 1390.47 369.185 1398.93 361.242C1407.39 353.169 1413.19 342.622 1416.31 329.602C1419.57 316.581 1421.2 302.714 1421.2 288C1421.2 273.156 1419.57 259.289 1416.31 246.398C1413.19 233.378 1407.39 222.896 1398.93 214.953C1390.47 206.88 1378.29 202.844 1362.41 202.844C1346.52 202.844 1334.28 206.88 1325.69 214.953C1317.09 222.896 1311.17 233.378 1307.91 246.398C1304.66 259.289 1303.03 273.156 1303.03 288ZM1590.53 478.039C1587.02 479.992 1582.52 481.555 1577.05 482.727C1571.59 483.898 1566.77 484.484 1562.6 484.484C1555.96 484.484 1550.49 482.987 1546.2 479.992C1541.9 476.997 1539.75 471.919 1539.75 464.758V207.531H1504.98V192.883C1508.63 191.19 1514.1 189.758 1521.39 188.586C1528.81 187.414 1536.76 186.503 1545.22 185.852C1553.81 185.201 1561.49 184.875 1568.27 184.875C1573.6 184.875 1577.71 185.331 1580.57 186.242C1583.57 187.023 1585.06 190.018 1585.06 195.227V204.406C1592.74 198.807 1602.77 193.664 1615.14 188.977C1627.51 184.289 1640.66 181.945 1654.59 181.945C1670.61 181.945 1684.02 185.005 1694.83 191.125C1705.77 197.115 1714.49 205.188 1721 215.344C1727.51 225.37 1732.2 236.633 1735.06 249.133C1737.93 261.633 1739.36 274.328 1739.36 287.219C1739.36 300.37 1737.47 313.326 1733.7 326.086C1730.05 338.716 1724.45 350.174 1716.9 360.461C1709.48 370.617 1700.1 378.755 1688.77 384.875C1677.45 390.995 1664.16 394.055 1648.93 394.055C1636.56 394.055 1625.56 392.427 1615.92 389.172C1606.29 386.047 1598.73 382.922 1593.27 379.797C1587.8 376.542 1585.06 374.849 1585.06 374.719V421.984C1585.06 438 1585.78 450.435 1587.21 459.289C1588.64 468.143 1589.75 474.393 1590.53 478.039ZM1585.06 351.281C1592.48 355.448 1600.62 359.68 1609.48 363.977C1618.46 368.273 1627.9 370.422 1637.8 370.422C1649.91 370.422 1659.87 366.646 1667.68 359.094C1675.49 351.411 1681.22 341.255 1684.87 328.625C1688.64 315.865 1690.53 301.932 1690.53 286.828C1690.53 261.568 1687.6 241.646 1681.74 227.062C1676.01 212.479 1664.82 205.188 1648.15 205.188C1641.25 205.188 1634.09 206.164 1626.66 208.117C1619.37 209.94 1612.54 212.089 1606.16 214.562C1599.91 217.036 1594.83 219.25 1590.92 221.203C1587.02 223.026 1585.06 223.938 1585.06 223.938V351.281ZM1805.77 120.031C1805.77 112.609 1808.43 106.359 1813.77 101.281C1819.24 96.2031 1825.75 93.6641 1833.3 93.6641C1840.99 93.6641 1847.5 96.2031 1852.84 101.281C1858.17 106.359 1860.84 112.609 1860.84 120.031C1860.84 127.193 1858.17 133.312 1852.84 138.391C1847.5 143.469 1840.99 146.008 1833.3 146.008C1825.75 146.008 1819.24 143.469 1813.77 138.391C1808.43 133.312 1805.77 127.193 1805.77 120.031ZM1855.77 368.469H1889.75V383.117C1885.32 385.591 1878.03 387.609 1867.88 389.172C1857.72 390.734 1847.95 391.516 1838.58 391.516C1830.64 391.516 1823.93 390.344 1818.46 388C1813.12 385.786 1810.45 380.708 1810.45 372.766V207.141H1776.08V192.492C1779.72 190.799 1785.19 189.367 1792.48 188.195C1799.78 187.023 1807.65 186.112 1816.12 185.461C1824.58 184.81 1832.2 184.484 1838.97 184.484C1844.31 184.484 1848.41 184.94 1851.27 185.852C1854.27 186.633 1855.77 189.628 1855.77 194.836V368.469ZM2054.59 370.812C2054.59 370.682 2052.71 371.789 2048.93 374.133C2045.28 376.477 2040.27 379.211 2033.89 382.336C2027.64 385.461 2020.67 388.195 2012.99 390.539C2005.31 392.883 1997.43 394.055 1989.36 394.055C1978.03 394.055 1967.55 392.036 1957.91 388C1948.28 383.833 1940.53 377.453 1934.67 368.859C1928.81 360.135 1925.88 349.068 1925.88 335.656C1925.88 320.682 1930.18 308.703 1938.77 299.719C1947.5 290.734 1959.48 284.289 1974.71 280.383C1989.95 276.346 2007.39 274.328 2027.05 274.328H2054.59V259.68C2054.59 249.523 2053.94 240.083 2052.64 231.359C2051.34 222.635 2048.47 215.669 2044.05 210.461C2039.75 205.122 2032.98 202.453 2023.73 202.453C2015.01 202.453 2006.16 204.471 1997.17 208.508C1988.32 212.544 1979.85 217.427 1971.78 223.156C1963.71 228.885 1956.42 234.354 1949.91 239.562L1933.89 218.078C1931.94 215.734 1930.96 213.326 1930.96 210.852C1930.96 206.555 1933.63 202.648 1938.97 199.133C1944.31 195.617 1951.14 192.557 1959.48 189.953C1967.81 187.349 1976.6 185.396 1985.84 184.094C1995.22 182.661 2003.88 181.945 2011.82 181.945C2027.84 181.945 2042.48 184.549 2055.77 189.758C2069.18 194.836 2079.85 203.104 2087.8 214.562C2095.87 225.891 2099.91 240.93 2099.91 259.68V368.469H2133.89V383.117C2129.46 385.591 2122.17 387.609 2112.02 389.172C2101.86 390.734 2092.03 391.516 2082.52 391.516C2076.14 391.516 2069.96 390.409 2063.97 388.195C2058.11 386.112 2054.98 380.969 2054.59 372.766V370.812ZM2003.03 365.148C2007.59 365.148 2012.8 364.562 2018.66 363.391C2024.52 362.219 2030.18 360.852 2035.65 359.289C2041.12 357.596 2045.61 356.164 2049.12 354.992C2052.77 353.82 2054.59 353.234 2054.59 353.234V298.352H2021.78C2015.27 298.352 2007.98 299.263 1999.91 301.086C1991.96 302.779 1985.06 306.164 1979.2 311.242C1973.47 316.19 1970.61 323.612 1970.61 333.508C1970.61 342.753 1973.41 350.37 1979.01 356.359C1984.61 362.219 1992.61 365.148 2003.03 365.148Z" fill="#323030"/>
<path d="M276.953 365.539H313.867V382.336C309.18 384.81 301.432 386.958 290.625 388.781C279.948 390.604 269.401 391.516 258.984 391.516C251.042 391.516 244.401 390.344 239.062 388C233.724 385.786 231.055 380.708 231.055 372.766V257.141H96.0938V326.477C96.0938 343.013 96.875 355.969 98.4375 365.344C100.13 374.589 101.367 381.099 102.148 384.875C98.3724 386.958 93.8151 388.586 88.4766 389.758C83.138 390.93 78.2552 391.516 73.8281 391.516C67.0573 391.516 61.3932 390.148 56.8359 387.414C52.4089 384.549 50.1953 379.406 50.1953 371.984V132.727H12.5V117.297C16.5365 115.214 24.0234 113.195 34.9609 111.242C45.8984 109.289 57.7474 108.312 70.5078 108.312H79.2969C84.375 108.312 88.4115 108.573 91.4062 109.094C94.5312 109.615 96.0938 112.74 96.0938 118.469V229.602H231.055V171.594C231.055 154.927 230.208 142.232 228.516 133.508C226.953 124.784 225.781 118.534 225 114.758C228.776 112.544 233.333 110.917 238.672 109.875C244.01 108.833 248.893 108.312 253.32 108.312C260.221 108.312 265.885 109.68 270.312 112.414C274.74 115.148 276.953 120.227 276.953 127.648V365.539ZM478.906 370.812C478.906 370.682 477.018 371.789 473.242 374.133C469.596 376.477 464.583 379.211 458.203 382.336C451.953 385.461 444.987 388.195 437.305 390.539C429.622 392.883 421.745 394.055 413.672 394.055C402.344 394.055 391.862 392.036 382.227 388C372.591 383.833 364.844 377.453 358.984 368.859C353.125 360.135 350.195 349.068 350.195 335.656C350.195 320.682 354.492 308.703 363.086 299.719C371.81 290.734 383.789 284.289 399.023 280.383C414.258 276.346 431.706 274.328 451.367 274.328H478.906V259.68C478.906 249.523 478.255 240.083 476.953 231.359C475.651 222.635 472.786 215.669 468.359 210.461C464.062 205.122 457.292 202.453 448.047 202.453C439.323 202.453 430.469 204.471 421.484 208.508C412.63 212.544 404.167 217.427 396.094 223.156C388.021 228.885 380.729 234.354 374.219 239.562L358.203 218.078C356.25 215.734 355.273 213.326 355.273 210.852C355.273 206.555 357.943 202.648 363.281 199.133C368.62 195.617 375.456 192.557 383.789 189.953C392.122 187.349 400.911 185.396 410.156 184.094C419.531 182.661 428.19 181.945 436.133 181.945C452.148 181.945 466.797 184.549 480.078 189.758C493.49 194.836 504.167 203.104 512.109 214.562C520.182 225.891 524.219 240.93 524.219 259.68V368.469H558.203V383.117C553.776 385.591 546.484 387.609 536.328 389.172C526.172 390.734 516.341 391.516 506.836 391.516C500.456 391.516 494.271 390.409 488.281 388.195C482.422 386.112 479.297 380.969 478.906 372.766V370.812ZM427.344 365.148C431.901 365.148 437.109 364.562 442.969 363.391C448.828 362.219 454.492 360.852 459.961 359.289C465.43 357.596 469.922 356.164 473.438 354.992C477.083 353.82 478.906 353.234 478.906 353.234V298.352H446.094C439.583 298.352 432.292 299.263 424.219 301.086C416.276 302.779 409.375 306.164 403.516 311.242C397.786 316.19 394.922 323.612 394.922 333.508C394.922 342.753 397.721 350.37 403.32 356.359C408.919 362.219 416.927 365.148 427.344 365.148ZM746.484 229.602C737.891 224.654 727.734 219.38 716.016 213.781C704.297 208.052 692.708 205.188 681.25 205.188C669.531 205.188 660.026 208.898 652.734 216.32C645.573 223.742 640.299 232.987 636.914 244.055C633.659 254.992 632.031 265.93 632.031 276.867C632.031 293.924 635.026 309.419 641.016 323.352C647.135 337.284 656.51 348.352 669.141 356.555C681.771 364.758 697.786 368.859 717.188 368.859C732.943 368.859 750 366.06 768.359 360.461L774.805 373.547C764.128 380.708 751.888 385.917 738.086 389.172C724.414 392.427 711.068 394.055 698.047 394.055C683.854 394.055 670.117 391.841 656.836 387.414C643.555 382.857 631.641 376.216 621.094 367.492C610.677 358.768 602.344 348.091 596.094 335.461C589.974 322.701 586.914 308.052 586.914 291.516C586.914 268.729 592.122 249.198 602.539 232.922C612.956 216.516 627.148 203.951 645.117 195.227C663.086 186.372 683.398 181.945 706.055 181.945C708.008 181.945 711.914 182.206 717.773 182.727C723.633 183.117 729.883 183.964 736.523 185.266C743.294 186.438 749.089 188.195 753.906 190.539C758.854 192.883 761.328 195.878 761.328 199.523C761.328 201.477 761.003 202.844 760.352 203.625L746.484 229.602ZM793.359 111.242V96.3984C797.005 94.7057 802.474 93.2734 809.766 92.1016C817.188 90.9297 825.065 90.0182 833.398 89.3672C841.862 88.7161 849.479 88.3906 856.25 88.3906C861.589 88.3906 865.69 88.8464 868.555 89.7578C871.549 90.5391 873.047 93.5339 873.047 98.7422V329.211C873.047 345.227 873.763 357.661 875.195 366.516C876.628 375.37 877.799 381.62 878.711 385.266C875.065 387.219 870.508 388.716 865.039 389.758C859.57 390.93 854.753 391.516 850.586 391.516C844.076 391.516 838.672 390.214 834.375 387.609C830.078 384.875 827.93 379.927 827.93 372.766V111.242H793.359ZM997.461 196.398C997.461 202.648 994.792 209.419 989.453 216.711C984.115 224.003 977.279 231.359 968.945 238.781C960.742 246.203 952.214 253.299 943.359 260.07C934.635 266.841 926.823 272.831 919.922 278.039L981.836 357.141L1010.74 338.391L1018.55 350.305C1015.56 356.164 1010.74 362.284 1004.1 368.664C997.591 375.044 990.56 380.448 983.008 384.875C975.456 389.302 968.555 391.516 962.305 391.516C955.534 391.516 949.935 388.456 945.508 382.336L881.445 300.305C881.445 300.305 880.99 299.589 880.078 298.156C879.167 296.724 878.711 294.966 878.711 292.883C878.711 289.497 880.143 286.568 883.008 284.094C887.174 280.318 892.773 275.5 899.805 269.641C906.966 263.781 914.193 257.336 921.484 250.305C928.776 243.143 934.896 235.917 939.844 228.625C944.922 221.203 947.461 214.172 947.461 207.531C947.461 204.016 946.94 200.956 945.898 198.352C954.883 193.924 961.523 190.539 965.82 188.195C970.117 185.852 973.438 184.224 975.781 183.312C978.255 182.401 981.055 181.945 984.18 181.945C988.607 181.945 991.927 183.378 994.141 186.242C996.354 188.977 997.461 192.362 997.461 196.398ZM1203.32 374.328C1194.21 379.927 1184.83 384.615 1175.2 388.391C1165.69 392.167 1153.65 394.055 1139.06 394.055C1120.05 394.055 1105.01 388.391 1093.95 377.062C1082.88 365.734 1077.34 350.044 1077.34 329.992V212.023H1036.91V203.234C1036.91 197.375 1038.15 193.404 1040.62 191.32C1043.23 189.107 1047.33 188 1052.93 188H1077.34V141.516C1077.34 134.354 1079.49 129.536 1083.79 127.062C1088.09 124.458 1093.55 123.156 1100.2 123.156C1104.36 123.156 1109.18 123.677 1114.65 124.719C1120.12 125.63 1124.61 127.128 1128.12 129.211C1127.34 132.857 1126.24 139.172 1124.8 148.156C1123.37 157.141 1122.66 170.422 1122.66 188H1190.62V196.398C1190.62 202.128 1189.32 206.164 1186.72 208.508C1184.24 210.852 1180.21 212.023 1174.61 212.023H1122.66V326.477C1122.66 356.034 1133.46 370.812 1155.08 370.812C1161.59 370.812 1168.1 369.901 1174.61 368.078C1181.12 366.255 1186.52 364.497 1190.82 362.805C1195.12 361.112 1197.2 360.461 1197.07 360.852L1203.32 374.328ZM1448.44 288.391C1448.44 309.615 1443.62 328.169 1433.98 344.055C1424.48 359.81 1411.65 372.115 1395.51 380.969C1379.36 389.693 1361.33 394.055 1341.41 394.055C1321.35 394.055 1303.19 389.628 1286.91 380.773C1270.64 371.919 1257.68 359.615 1248.05 343.859C1238.54 327.974 1233.79 309.484 1233.79 288.391C1233.79 267.036 1238.54 248.417 1248.05 232.531C1257.68 216.516 1270.64 204.081 1286.91 195.227C1303.19 186.372 1321.35 181.945 1341.41 181.945C1361.46 181.945 1379.56 186.372 1395.7 195.227C1411.85 204.081 1424.67 216.516 1434.18 232.531C1443.68 248.417 1448.44 267.036 1448.44 288.391ZM1282.03 288C1282.03 302.714 1283.66 316.581 1286.91 329.602C1290.17 342.622 1296.09 353.169 1304.69 361.242C1313.28 369.185 1325.52 373.156 1341.41 373.156C1357.29 373.156 1369.47 369.185 1377.93 361.242C1386.39 353.169 1392.19 342.622 1395.31 329.602C1398.57 316.581 1400.2 302.714 1400.2 288C1400.2 273.156 1398.57 259.289 1395.31 246.398C1392.19 233.378 1386.39 222.896 1377.93 214.953C1369.47 206.88 1357.29 202.844 1341.41 202.844C1325.52 202.844 1313.28 206.88 1304.69 214.953C1296.09 222.896 1290.17 233.378 1286.91 246.398C1283.66 259.289 1282.03 273.156 1282.03 288ZM1569.53 478.039C1566.02 479.992 1561.52 481.555 1556.05 482.727C1550.59 483.898 1545.77 484.484 1541.6 484.484C1534.96 484.484 1529.49 482.987 1525.2 479.992C1520.9 476.997 1518.75 471.919 1518.75 464.758V207.531H1483.98V192.883C1487.63 191.19 1493.1 189.758 1500.39 188.586C1507.81 187.414 1515.76 186.503 1524.22 185.852C1532.81 185.201 1540.49 184.875 1547.27 184.875C1552.6 184.875 1556.71 185.331 1559.57 186.242C1562.57 187.023 1564.06 190.018 1564.06 195.227V204.406C1571.74 198.807 1581.77 193.664 1594.14 188.977C1606.51 184.289 1619.66 181.945 1633.59 181.945C1649.61 181.945 1663.02 185.005 1673.83 191.125C1684.77 197.115 1693.49 205.188 1700 215.344C1706.51 225.37 1711.2 236.633 1714.06 249.133C1716.93 261.633 1718.36 274.328 1718.36 287.219C1718.36 300.37 1716.47 313.326 1712.7 326.086C1709.05 338.716 1703.45 350.174 1695.9 360.461C1688.48 370.617 1679.1 378.755 1667.77 384.875C1656.45 390.995 1643.16 394.055 1627.93 394.055C1615.56 394.055 1604.56 392.427 1594.92 389.172C1585.29 386.047 1577.73 382.922 1572.27 379.797C1566.8 376.542 1564.06 374.849 1564.06 374.719V421.984C1564.06 438 1564.78 450.435 1566.21 459.289C1567.64 468.143 1568.75 474.393 1569.53 478.039ZM1564.06 351.281C1571.48 355.448 1579.62 359.68 1588.48 363.977C1597.46 368.273 1606.9 370.422 1616.8 370.422C1628.91 370.422 1638.87 366.646 1646.68 359.094C1654.49 351.411 1660.22 341.255 1663.87 328.625C1667.64 315.865 1669.53 301.932 1669.53 286.828C1669.53 261.568 1666.6 241.646 1660.74 227.062C1655.01 212.479 1643.82 205.188 1627.15 205.188C1620.25 205.188 1613.09 206.164 1605.66 208.117C1598.37 209.94 1591.54 212.089 1585.16 214.562C1578.91 217.036 1573.83 219.25 1569.92 221.203C1566.02 223.026 1564.06 223.938 1564.06 223.938V351.281ZM1784.77 120.031C1784.77 112.609 1787.43 106.359 1792.77 101.281C1798.24 96.2031 1804.75 93.6641 1812.3 93.6641C1819.99 93.6641 1826.5 96.2031 1831.84 101.281C1837.17 106.359 1839.84 112.609 1839.84 120.031C1839.84 127.193 1837.17 133.312 1831.84 138.391C1826.5 143.469 1819.99 146.008 1812.3 146.008C1804.75 146.008 1798.24 143.469 1792.77 138.391C1787.43 133.312 1784.77 127.193 1784.77 120.031ZM1834.77 368.469H1868.75V383.117C1864.32 385.591 1857.03 387.609 1846.88 389.172C1836.72 390.734 1826.95 391.516 1817.58 391.516C1809.64 391.516 1802.93 390.344 1797.46 388C1792.12 385.786 1789.45 380.708 1789.45 372.766V207.141H1755.08V192.492C1758.72 190.799 1764.19 189.367 1771.48 188.195C1778.78 187.023 1786.65 186.112 1795.12 185.461C1803.58 184.81 1811.2 184.484 1817.97 184.484C1823.31 184.484 1827.41 184.94 1830.27 185.852C1833.27 186.633 1834.77 189.628 1834.77 194.836V368.469ZM2033.59 370.812C2033.59 370.682 2031.71 371.789 2027.93 374.133C2024.28 376.477 2019.27 379.211 2012.89 382.336C2006.64 385.461 1999.67 388.195 1991.99 390.539C1984.31 392.883 1976.43 394.055 1968.36 394.055C1957.03 394.055 1946.55 392.036 1936.91 388C1927.28 383.833 1919.53 377.453 1913.67 368.859C1907.81 360.135 1904.88 349.068 1904.88 335.656C1904.88 320.682 1909.18 308.703 1917.77 299.719C1926.5 290.734 1938.48 284.289 1953.71 280.383C1968.95 276.346 1986.39 274.328 2006.05 274.328H2033.59V259.68C2033.59 249.523 2032.94 240.083 2031.64 231.359C2030.34 222.635 2027.47 215.669 2023.05 210.461C2018.75 205.122 2011.98 202.453 2002.73 202.453C1994.01 202.453 1985.16 204.471 1976.17 208.508C1967.32 212.544 1958.85 217.427 1950.78 223.156C1942.71 228.885 1935.42 234.354 1928.91 239.562L1912.89 218.078C1910.94 215.734 1909.96 213.326 1909.96 210.852C1909.96 206.555 1912.63 202.648 1917.97 199.133C1923.31 195.617 1930.14 192.557 1938.48 189.953C1946.81 187.349 1955.6 185.396 1964.84 184.094C1974.22 182.661 1982.88 181.945 1990.82 181.945C2006.84 181.945 2021.48 184.549 2034.77 189.758C2048.18 194.836 2058.85 203.104 2066.8 214.562C2074.87 225.891 2078.91 240.93 2078.91 259.68V368.469H2112.89V383.117C2108.46 385.591 2101.17 387.609 2091.02 389.172C2080.86 390.734 2071.03 391.516 2061.52 391.516C2055.14 391.516 2048.96 390.409 2042.97 388.195C2037.11 386.112 2033.98 380.969 2033.59 372.766V370.812ZM1982.03 365.148C1986.59 365.148 1991.8 364.562 1997.66 363.391C2003.52 362.219 2009.18 360.852 2014.65 359.289C2020.12 357.596 2024.61 356.164 2028.12 354.992C2031.77 353.82 2033.59 353.234 2033.59 353.234V298.352H2000.78C1994.27 298.352 1986.98 299.263 1978.91 301.086C1970.96 302.779 1964.06 306.164 1958.2 311.242C1952.47 316.19 1949.61 323.612 1949.61 333.508C1949.61 342.753 1952.41 350.37 1958.01 356.359C1963.61 362.219 1971.61 365.148 1982.03 365.148Z" fill="url(#paint0_linear_41_2)"/>
<defs>
<linearGradient id="paint0_linear_41_2" x1="1060" y1="184" x2="1177.5" y2="487" gradientUnits="userSpaceOnUse">
<stop stop-color="white"/>
<stop offset="1" stop-color="#A2A2A2"/>
</linearGradient>
</defs>
</svg>
